# xmcd
#
# Track frame offsets: 
#        150
#        23924
#        46554
#        69137
#        93897
#        120609
#        144011
#        170492
#        194959
#        219356
#        242649
#        267290
#
# Disc length: 3917 seconds
#
# Revision: 1
# Processed by: cddbd v1.5.2PL0 Copyright (c) Steve Scherf et al.
# Submitted via: ExactAudioCopy v1.0b3
#
DISCID=9c0f4b0c
DTITLE=Roy Gaines - Tuxedo Blues
DYEAR=2009
DGENRE=Blues
TTITLE0=Send For Me
TTITLE1=Blues From Hell
TTITLE2=Good Old Days
TTITLE3=Rats In My Kitchen
TTITLE4=Thang Shaker
TTITLE5=Inflation Blues
TTITLE6=Miss Celie's Blues (Sister)
TTITLE7=Come Home
TTITLE8=Reggae Woman (Calypso Blues)
TTITLE9=Rock With You
TTITLE10=Route 66
TTITLE11=Outside Lookin In
EXTD=
EXTT0=
EXTT1=
EXTT2=
EXTT3=
EXTT4=
EXTT5=
EXTT6=
EXTT7=
EXTT8=
EXTT9=
EXTT10=
EXTT11=
PLAYORDER=
